<?xml version="1.0" encoding="iso-8859-1"?>
<!-- Generator: Adobe Illustrator 19.0.0, SVG Export Plug-In . SVG Version: 6.00 Build 0)  -->
<svg version="1.1" id="Capa_1" xmlns="http://www.w3.org/2000/svg" xmlns:xlink="http://www.w3.org/1999/xlink" x="0px" y="0px"
	 viewBox="0 0 512 512" style="enable-background:new 0 0 512 512;" xml:space="preserve">
<linearGradient id="SVGID_1_" gradientUnits="userSpaceOnUse" x1="0" y1="258" x2="512" y2="258" gradientTransform="matrix(1 0 0 -1 0 514)">
	<stop  offset="0" style="stop-color:#80D8FF"/>
	<stop  offset="1" style="stop-color:#EA80FC"/>
</linearGradient>
<path style="fill:url(#SVGID_1_);" d="M432,452c11.046,0,20-8.954,20-20V20c0-11.046-8.954-20-20-20H20C8.954,0,0,8.954,0,20v412
	c0,11.046,8.954,20,20,20C37.378,452,412.261,452,432,452z M40,40h372v372h-6.361c-7.398-66.897-51.447-122.899-111.567-147.432
	c19.851-18.35,32.304-44.594,32.304-73.695c0-55.348-45.028-100.376-100.376-100.376s-100.376,45.028-100.376,100.376
	c0,29.101,12.453,55.345,32.304,73.695C97.808,289.101,53.76,345.103,46.361,412H40V40z M165.624,190.873
	c0-33.291,27.085-60.376,60.376-60.376s60.376,27.085,60.376,60.376S259.291,251.249,226,251.249S165.624,224.164,165.624,190.873z
	 M86.666,412C96.404,343.827,155.178,291.249,226,291.249S355.596,343.827,365.334,412H86.666z M512,96v396c0,11.046-8.954,20-20,20
	H96c-11.046,0-20-8.954-20-20s8.954-20,20-20h376V96c0-11.046,8.954-20,20-20S512,84.954,512,96z"/>
<g>
</g>
<g>
</g>
<g>
</g>
<g>
</g>
<g>
</g>
<g>
</g>
<g>
</g>
<g>
</g>
<g>
</g>
<g>
</g>
<g>
</g>
<g>
</g>
<g>
</g>
<g>
</g>
<g>
</g>
</svg>
