<svg height="512" viewBox="0 0 512 512" width="512" xmlns="http://www.w3.org/2000/svg"><g id="Flat"><path d="m416 413.48v82.52h-320v-82.52a48 48 0 0 1 36.36-46.57l59.64-14.91 24-24v-32h80v32l24 24 59.64 14.91a48 48 0 0 1 36.36 46.57z" fill="#fdc8a2"/><path d="m306.5 338.5-1.36 2.45a31.991 31.991 0 0 1 -27.97 16.46h-42.34a31.991 31.991 0 0 1 -27.97-16.46l-1.36-2.45 10.5-10.5v-32h80v32z" fill="#fdbf92"/><path d="m379.642 366.91-59.642-14.91c-25.484 54.153-102.516 54.153-128 0l-59.642 14.91a48 48 0 0 0 -36.358 46.567v82.523h320v-82.523a48 48 0 0 0 -36.358-46.567z" fill="#dfdfdd"/><path d="m258.977 430.01a93.5 93.5 0 0 1 -20.917-2.247l3.863-15.527c.288.071 28.926 6.881 49.594-6.86l15.95-10.968 9.066 13.184-16 11-.1.064c-13.619 9.084-29.246 11.354-41.456 11.354z" fill="#d5d5d3"/><path d="m408 176a39.99 39.99 0 0 0 -20.871-35.136 40.011 40.011 0 0 0 -35.136-60.857 40.011 40.011 0 0 0 -60.857-35.136 40.011 40.011 0 0 0 -70.272 0 40.011 40.011 0 0 0 -60.857 35.136 40.011 40.011 0 0 0 -35.136 60.857 40.011 40.011 0 0 0 0 70.272 40.011 40.011 0 0 0 35.136 60.857 40.011 40.011 0 0 0 60.857 35.136 40.011 40.011 0 0 0 70.272 0 40.011 40.011 0 0 0 60.857-35.136 40.011 40.011 0 0 0 35.136-60.857 39.99 39.99 0 0 0 20.871-35.136z" fill="#91563a"/><path d="m312 152a23.9 23.9 0 0 1 2-9.6 32 32 0 0 1 -40.2-19.8 32.008 32.008 0 0 1 -35.606 0 32 32 0 0 1 -40.194 19.8 24 24 0 0 1 -22 33.6v67.562a48.008 48.008 0 0 0 6.04 23.311l24.816 44.668a32 32 0 0 0 27.973 16.459h42.342a32 32 0 0 0 27.973-16.459l24.816-44.668a48.008 48.008 0 0 0 6.04-23.311v-67.562a24 24 0 0 1 -24-24z" fill="#fdc8a2"/><path d="m214 216a14 14 0 1 1 14-14 14.015 14.015 0 0 1 -14 14z" fill="#91563a"/><path d="m298 216a14 14 0 1 1 14-14 14.015 14.015 0 0 1 -14 14z" fill="#91563a"/><path d="m172 232h4v-56h-4a28 28 0 0 0 -28 28 28 28 0 0 0 28 28z" fill="#fdb683"/><path d="m340 176h-4v56h4a28 28 0 0 0 28-28 28 28 0 0 0 -28-28z" fill="#fdb683"/><path d="m248.732 270.173c-3.117 0-6.287-.129-9.467-.423l1.47-15.932c21.955 2.031 44.518-5.336 44.743-5.41l5.052 15.182a146.9 146.9 0 0 1 -41.798 6.583z" fill="#fcb079"/><path d="m248 208h16v32h-16z" fill="#fcb079"/><path d="m132.36 366.91a48 48 0 0 0 -36.36 46.57v82.52h120v-168l-24 24z" fill="#d65246"/><path d="m411.6 393.4a47.97 47.97 0 0 0 -31.96-26.49l-59.64-14.91-24-24v168h120v-82.52a47.79 47.79 0 0 0 -4.4-20.08z" fill="#d65246"/><path d="m192 352-16 64 40-24v-64z" fill="#df6257"/><path d="m320 352 16 64-40-24v-64z" fill="#df6257"/><g fill="#c14135"><path d="m150.53 435.37-13.06 9.26-36.77-51.87a47.769 47.769 0 0 1 9.89-13.74z"/><path d="m411.6 393.4-37.12 51.29-12.96-9.38 40.39-55.81a47.885 47.885 0 0 1 9.69 13.9z"/><path d="m144 456h16v40h-16z"/><path d="m352 456h16v40h-16z"/><path d="m176 432h16v16h-16z"/></g></g></svg>