<svg height="512pt" viewBox="0 -4 512.002 512" width="512pt" xmlns="http://www.w3.org/2000/svg"><path d="m10 409.109375v-87.875c0-14.363281 11.644531-26.007813 26.007812-26.007813h180.148438c14.367188 0 26.007812 11.644532 26.007812 26.007813v87.875zm0 0" fill="#b1e9f9"/><path d="m42.929688 93.921875v112.15625c0 47.449219 60.003906 59.480469 63.722656 60.480469l-.390625 28.667968h-13.199219v7.074219c0 18.238281 14.785156 33.019531 33.019531 33.019531 18.238281 0 33.019531-14.78125 33.019531-33.019531v-7.074219h-12.285156l-.390625-28.667968c3.714844-1.003906 63.722657-12.804688 63.722657-60.484375v-114.773438" fill="#e1be9c"/><path d="m210.152344 128.621094v46.105468s14.082031-55.386718 14.089844-102.5c.003906-32.472656-14.046876-62.25-14.089844-62.226562l-2.984375 2.386719c-20.84375 16.679687-48.066407 23.132812-74.175781 17.582031-29.628907-6.296875-60.09375 6.449219-76.285157 32.046875-.179687.285156-.273437.4375-.273437.4375-19.765625 0-34.917969 17.5625-32.019532 37.113281l18.515626 66.683594v-35.539062c0-8.777344 7.113281-15.894532 15.890624-15.894532h42.679688c24.691406 0 48.445312-9.441406 66.402344-26.382812" fill="#6f6797"/><path d="m74.695312 178.5625c-4.828124 0-9.078124-3.507812-9.859374-8.425781-.820313-5.136719 2.425781-9.980469 7.359374-11.253907.058594-.246093.128907-.488281.207032-.734374 1.710937-5.25 7.355468-8.121094 12.609375-6.40625l12.691406 4.140624c4.390625 1.433594 7.230469 5.6875 6.867187 10.292969-.359374 4.605469-3.832031 8.363281-8.394531 9.089844l-19.890625 3.171875c-.535156.082031-1.0625.125-1.589844.125zm0 0"/><path d="m178.382812 178.5625c-.523437 0-1.054687-.042969-1.585937-.125l-19.894531-3.171875c-4.5625-.730469-8.03125-4.484375-8.394532-9.089844-.363281-4.605469 2.476563-8.859375 6.867188-10.292969l12.691406-4.140624c5.25-1.710938 10.898438 1.15625 12.609375 6.40625.078125.246093.148438.488281.207031.734374 4.933594 1.273438 8.179688 6.117188 7.359376 11.253907-.78125 4.917969-5.03125 8.425781-9.859376 8.425781zm0 0"/><path d="m280.453125 452.371094h158.871094v-96.480469c0-15.769531-12.785157-28.554687-28.554688-28.554687h-197.792969c-15.769531 0-28.554687 12.785156-28.554687 28.554687v96.480469" fill="#6bcdf5"/><path d="m233.03125 462.375c-.652344 0-1.3125-.070312-1.960938-.199219-.632812-.128906-1.261718-.320312-1.871093-.570312-.601563-.25-1.179688-.558594-1.71875-.917969-.550781-.371094-1.0625-.78125-1.519531-1.242188-.472657-.46875-.882813-.980468-1.25-1.53125-.363282-.539062-.671876-1.117187-.921876-1.71875-.25-.597656-.441406-1.230468-.570312-1.871093-.128906-.648438-.199219-1.308594-.199219-1.957031 0-.652344.070313-1.3125.199219-1.953126.128906-.636718.320312-1.269531.570312-1.867187.25-.601563.558594-1.191406.921876-1.730469.367187-.539062.777343-1.0625 1.25-1.519531.457031-.460937.96875-.882813 1.519531-1.242187.539062-.359376 1.117187-.667969 1.71875-.917969.609375-.25 1.230469-.441407 1.871093-.570313 1.289063-.261718 2.617188-.261718 3.910157 0 .640625.128906 1.269531.320313 1.867187.570313.601563.25 1.191406.558593 1.730469.917969.550781.359374 1.0625.78125 1.519531 1.242187.460938.457031.882813.980469 1.242188 1.519531.359375.539063.667968 1.128906.917968 1.730469.25.597656.441407 1.230469.570313 1.867187.132813.640626.199219 1.300782.199219 1.953126 0 .648437-.066406 1.308593-.199219 1.957031-.128906.640625-.320313 1.273437-.570313 1.871093-.25.601563-.558593 1.179688-.917968 1.71875-.359375.550782-.78125 1.0625-1.242188 1.53125-.457031.460938-.96875.871094-1.519531 1.242188-.539063.359375-1.128906.667969-1.730469.917969-.597656.25-1.226562.441406-1.867187.570312-.640625.128907-1.300781.199219-1.949219.199219zm0 0"/><path d="m220.574219 106.316406v123.140625c0 52.097657 65.882812 65.304688 69.964843 66.40625l-.429687 31.472657h-14.488281v7.765624c0 20.023438 16.230468 36.253907 36.25 36.253907 20.023437 0 36.253906-16.230469 36.253906-36.253907v-7.765624h-13.488281l-.429688-31.476563c4.078125-1.101563 69.964844-14.058594 69.964844-66.402344v-126.015625" fill="#fbcbc5"/><path d="m404.171875 151.457031c29.617187-51.414062.050781-116.578125 0-116.550781-14.144531 19.054688-45.8125 12.730469-74.898437-1.421875-34.585938-16.828125-76.445313 3.660156-93.738282 38.015625-.089844.175781-.132812.269531-.132812.269531-65.136719-10.324219-14.828125 113.957031-14.828125 113.957031v-39.019531c0-9.636719 7.8125-17.449219 17.449219-17.449219h89.066406l20.347656-29.21875h10.363281" fill="#ffe787"/><path d="m255.457031 198.265625c-4.828125 0-9.078125-3.503906-9.863281-8.425781-.851562-5.332032 2.683594-10.351563 7.9375-11.386719.082031-.4375.191406-.878906.335938-1.3125 1.710937-5.253906 7.355468-8.121094 12.605468-6.410156l13.9375 4.546875c4.390625 1.433594 7.230469 5.6875 6.867188 10.292968-.363282 4.605469-3.832032 8.363282-8.394532 9.089844l-21.84375 3.480469c-.527343.085937-1.058593.125-1.582031.125zm0 0"/><path d="m369.292969 198.265625c-.523438 0-1.054688-.039063-1.589844-.125l-21.839844-3.480469c-4.5625-.726562-8.03125-4.488281-8.394531-9.089844-.363281-4.605468 2.476562-8.863281 6.867188-10.292968l13.9375-4.546875c5.253906-1.710938 10.894531 1.15625 12.605468 6.40625.144532.4375.253906.878906.335938 1.316406 5.253906 1.035156 8.789062 6.054687 7.9375 11.386719-.78125 4.921875-5.03125 8.425781-9.859375 8.425781zm0 0"/><path d="m502 431.113281c0 35.210938-28.542969 63.757813-63.757812 63.757813-35.210938 0-63.753907-28.546875-63.753907-63.757813 0-35.210937 28.542969-63.753906 63.753907-63.753906 35.214843 0 63.757812 28.542969 63.757812 63.753906zm0 0" fill="#5fd696"/><path d="m449.066406 358.148438c.167969-.726563.257813-1.480469.257813-2.257813 0-21.257813-17.296875-38.554687-38.554688-38.554687h-66.269531l-.1875-13.75c12.8125-3.605469 24.277344-8.542969 34.15625-14.710938 23.355469-14.582031 35.703125-35.128906 35.703125-59.417969v-34.382812c0-.011719 0-.027344 0-.039063v-40.980468c12.210937-22.632813 16.019531-50.804688 11.007813-81.6875-2.015626-12.414063-5.089844-22.945313-7.316407-29.59375-4.175781-12.480469-5.636719-13.945313-6.601562-14.914063-2.050781-2.066406-4.890625-3.132813-7.8125-2.925781-2.902344.210937-5.570313 1.675781-7.308594 4.015625-13.132813 17.6875-51.152344 1.0625-62.496094-4.457031-18.960937-9.222657-40.867187-9.355469-61.6875-.375-15.152343 6.539062-28.601562 17.582031-38.292969 31.191406-1.246093-13.082032-4.308593-24.296875-6.972656-32.074219-1.96875-5.742187-3.9375-10.273437-5.242187-13.066406-2.355469-5.039063-3.425781-7.148438-6.253907-8.800781-3.574218-2.085938-8.0625-1.757813-11.292968.824218l-2.984375 2.386719c-18.574219 14.867187-42.574219 20.558594-65.851563 15.609375-32.089844-6.820312-65.34375 6.238281-84.222656 32.632812-10.226562 1.359376-19.664062 6.414063-26.488281 14.324219-8.058594 9.339844-11.640625 21.691407-9.832031 33.890625.0625.40625.144531.8125.257812 1.207032l18.148438 65.371093v38.460938c0 22.386719 11.414062 41.34375 33.003906 54.832031 8.898437 5.558594 19.171875 10.035156 30.613281 13.34375l-.148437 10.976562h-60.390626c-19.855468 0-36.007812 16.152344-36.007812 36.007813v87.875c0 5.523437 4.476562 10 10 10h164.421875v33.257813c0 5.523437 4.476563 10 10 10s10-4.476563 10-10v-96.476563c0-10.234375 8.324219-18.554687 18.554687-18.554687h52.699219c1.167969 24.46875 21.441407 44.019531 46.199219 44.019531 24.753906 0 45.027344-19.550781 46.195312-44.019531h52.699219c10.230469 0 18.554688 8.324218 18.554688 18.554687 0 .675781.070312 1.339844.199219 1.980469-36.574219 4.328125-65.03125 35.523437-65.03125 73.242187 0 3.828125.292968 7.585938.855468 11.253907h-84.890625c-5.523437 0-10 4.480468-10 10 0 5.523437 4.476563 10 10 10h90.988281c11.785157 25.089843 37.296876 42.503906 66.800782 42.503906 40.667968 0 73.757812-33.089844 73.757812-73.757813-.003906-36.992187-27.378906-67.710937-62.9375-72.964843zm-396.136718-152.070313v-75.367187c0-3.25 2.644531-5.894532 5.894531-5.894532h42.679687c27.351563 0 53.371094-10.339844 73.265625-29.113281 4.015625-3.789063 4.199219-10.117187.410157-14.132813-3.792969-4.019531-10.121094-4.203124-14.140626-.410156-16.164062 15.253906-37.308593 23.65625-59.535156 23.65625h-42.679687c-8.023438 0-15.207031 3.667969-19.960938 9.414063l-4.632812-16.6875c-.765625-6.257813 1.136719-12.546875 5.265625-17.332031 4.253906-4.929688 10.429687-7.757813 16.9375-7.757813 3.472656 0 6.703125-1.808594 8.523437-4.765625l.203125-.324219c13.867188-21.925781 40.292969-33.027343 65.753906-27.613281 26.230469 5.578125 53.203126.367188 75.296876-14.292969 3.367187 8.738281 7.421874 22.347657 7.96875 38.167969-6.015626 2.347656-10.164063 6.039062-12.953126 9.554688-10.816406 13.601562-12.113281 37-3.976562 71.53125.914062 3.886718 1.898438 7.671874 2.902344 11.296874v50.070313c0 33.816406-38.539063 46.601563-55.109375 50.527344-.570313.136719-.980469.234375-1.222657.300781-4.410156 1.191406-7.453124 5.222656-7.390624 9.792969l.390624 28.664062c.074219 5.46875 4.53125 9.863281 10 9.863281h2.101563c-1.441406 11.320313-11.132813 20.097657-22.835937 20.097657-11.703126 0-21.394532-8.777344-22.835938-20.097657h3.011719c5.472656 0 9.925781-4.394531 10-9.863281l.390625-28.664062c.066406-4.570313-2.976563-8.601563-7.390625-9.792969-.230469-.058594-.621094-.15625-1.160157-.285156-16.589843-3.972656-55.171874-16.839844-55.171874-50.542969zm227.3125 111.257813h-28.285157c-1.949219-18.027344-17.261719-32.109376-35.796875-32.109376h-59.476562l-.152344-10.957031c11.488281-3.292969 21.785156-7.757812 30.683594-13.316406 10.351562-6.460937 18.359375-14.203125 23.886718-22.988281 2.582032 20.527344 14.636719 37.988281 35.25 50.863281 9.878907 6.167969 21.320313 11.117187 34.082032 14.742187zm-105.820313 38.554687v43.21875h-154.421875v-77.875c0-8.824219 7.179688-16.007813 16.007812-16.007813h47.15625c1.507813 22.363282 20.183594 40.09375 42.921876 40.09375 22.734374 0 41.410156-17.730468 42.917968-40.09375h47.15625c7.480469 0 13.78125 5.160157 15.527344 12.109376h-18.710938c-21.257812 0-38.554687 17.292968-38.554687 38.554687zm137.449219 5.464844c-13.722656 0-25.019532-10.585938-26.15625-24.023438h4.394531c5.46875 0 9.921875-4.390625 10-9.859375l.429687-31.476562c.0625-4.566406-2.980468-8.597656-7.394531-9.789063-.246093-.066406-.664062-.167969-1.242187-.308593-18.4375-4.410157-61.328125-18.742188-61.328125-56.441407v-82.75c0-4.105469 3.34375-7.449219 7.453125-7.449219h89.0625c3.273437 0 6.339844-1.601562 8.207031-4.285156l17.363281-24.933594h5.140625c5.523438 0 10-4.476562 10-10 0-5.519531-4.476562-10-10-10h-10.363281c-3.273438 0-6.335938 1.601563-8.207031 4.285157l-17.359375 24.933593h-83.84375c-9.675782 0-18.195313 5.03125-23.085938 12.613282-3.859375-19.972656-4.449218-38.214844 1.9375-46.25 1.164063-1.464844 4.707032-5.921875 16.960938-3.976563 4.3125.679688 8.570312-1.511719 10.515625-5.421875l.117187-.226562c14.183594-28.183594 49.890625-48.378906 80.425782-33.519532 31.277343 15.214844 57.480468 18.234376 74.769531 9.140626 3.449219 10.953124 7.613281 28.054687 7.628906 46.761718-.984375-.320312-2.03125-.496094-3.121094-.496094-5.523437 0-10 4.476563-10 10v56.945313.074219 64.550781c0 37.828125-42.84375 52.066406-61.261719 56.429687-.613281.144532-1.054687.253907-1.3125.320313-4.410156 1.191406-7.453124 5.222656-7.390624 9.792969l.429687 31.472656c.074219 5.46875 4.527344 9.863281 10 9.863281h3.390625c-1.136719 13.4375-12.433594 24.023438-26.160156 24.023438zm126.371094 123.515625c-29.640626 0-53.753907-24.117188-53.753907-53.757813s24.113281-53.753906 53.753907-53.753906c29.644531 0 53.757812 24.113281 53.757812 53.753906s-24.113281 53.757813-53.757812 53.757813zm0 0"/><path d="m459.890625 421.113281h-11.644531v-11.644531c0-5.523438-4.480469-10-10-10-5.523438 0-10 4.476562-10 10v11.644531h-11.648438c-5.519531 0-10 4.476563-10 10 0 5.523438 4.480469 10 10 10h11.648438v11.648438c0 5.519531 4.476562 10 10 10 5.519531 0 10-4.480469 10-10v-11.648438h11.644531c5.523437 0 10-4.476562 10-10 0-5.523437-4.480469-10-10-10zm0 0"/><path d="m312.375 265.207031c-12.773438 0-24.363281-7.550781-29.527344-19.234375-2.234375-5.054687.050782-10.957031 5.101563-13.1875 5.058593-2.234375 10.957031.050782 13.191406 5.101563 1.964844 4.449219 6.375 7.320312 11.234375 7.320312s9.269531-2.875 11.234375-7.320312c2.234375-5.050781 8.136719-7.335938 13.1875-5.105469 5.054687 2.234375 7.335937 8.140625 5.105469 13.191406-5.164063 11.683594-16.753906 19.234375-29.527344 19.234375zm0 0"/><path d="m126.539062 240.074219c-11.019531 0-21.023437-6.515625-25.480468-16.597657-2.230469-5.050781.050781-10.957031 5.105468-13.1875 5.054688-2.234374 10.957032.050782 13.1875 5.101563 1.257813 2.847656 4.078126 4.6875 7.1875 4.6875 3.109376 0 5.929688-1.839844 7.1875-4.683594 2.234376-5.050781 8.136719-7.339843 13.1875-5.105469 5.054688 2.230469 7.339844 8.136719 5.105469 13.1875-4.457031 10.082032-14.457031 16.597657-25.480469 16.597657zm0 0"/></svg>