<svg id="Capa_1" enable-background="new 0 0 512 512" height="512" viewBox="0 0 512 512" width="512" xmlns="http://www.w3.org/2000/svg"><g><g><ellipse cx="229.187" cy="132.194" fill="#784033" rx="157.656" ry="124.636"/></g><g><path d="m229.187 7.558c-13.957 0-27.488 1.441-40.375 4.132 67.508 14.1 117.281 62.704 117.281 120.504s-49.773 106.404-117.281 120.504c12.887 2.692 26.418 4.132 40.375 4.132 87.071 0 157.656-55.801 157.656-124.636s-70.585-124.636-157.656-124.636z" fill="#61362b"/></g><g><path d="m428.084 450.02h-397.794c-2.761 0-5-2.239-5-5v-19.514c0-82.843 67.157-150 150-150h107.794c82.843 0 150 67.157 150 150v19.514c0 2.761-2.239 5-5 5z" fill="#ffe07d"/></g><path d="m283.084 275.506h-107.795c-4.107 0-8.173.172-12.197.496 77.138 6.208 137.803 70.769 137.803 149.504v19.514c0 2.761-2.239 5-5 5h132.188c2.761 0 5-2.239 5-5v-19.514c.001-82.843-67.157-150-149.999-150z" fill="#ffd064"/><g><path d="m240.886 336.876h-23.398c-30.625 0-55.451-24.826-55.451-55.451v-56.925h134.301v56.924c-.001 30.625-24.827 55.452-55.452 55.452z" fill="#eaac9d"/></g><path d="m255.962 224.5v56.924c0 27.739-20.368 50.719-46.963 54.804 2.767.425 5.602.647 8.488.647h23.398c30.625 0 55.451-24.826 55.451-55.451v-56.924z" fill="#df9380"/><g><path d="m287.456 89.652h-116.539c-20.682 0-37.449 16.766-37.449 37.449v41.826c0 33.685 16.768 65.16 44.725 83.951l27.817 18.697c14.015 9.42 32.337 9.42 46.352 0l27.817-18.697c27.957-18.791 44.725-50.266 44.725-83.951v-41.826c0-20.682-16.766-37.449-37.448-37.449z" fill="#ffcbbe"/></g><g><path d="m287.456 89.652h-28.226c20.682 0 37.449 16.767 37.449 37.449v41.826c0 33.685-16.768 65.16-44.725 83.951l-27.817 18.697c-2.864 1.925-5.913 3.435-9.063 4.573 12.265 4.432 26.137 2.922 37.288-4.573l27.817-18.697c27.957-18.791 44.725-50.266 44.725-83.951v-41.826c0-20.682-16.766-37.449-37.448-37.449z" fill="#eaac9d"/></g><g><g><path d="m466.711 504.442h-125.86c-11.046 0-20-8.954-20-20v-82.407c0-11.046 8.954-20 20-20h125.86c11.046 0 20 8.954 20 20v82.407c0 11.045-8.954 20-20 20z" fill="#524798"/></g><g><path d="m466.554 382.035h-11.842v70.252c0 11.132-9.024 20.156-20.156 20.156h-113.705v11.842c0 11.132 9.024 20.156 20.156 20.156h125.548c11.132 0 20.156-9.024 20.156-20.156v-82.094c0-11.131-9.025-20.156-20.157-20.156z" fill="#453d81"/></g></g><g><path d="m111.349 224.915c3.217 2.622 7.987 2.158 10.633-1.094 2.634-3.238 2.144-7.999-1.094-10.633-26.954-21.925-41.799-50.689-41.799-80.993 0-64.556 67.334-117.077 150.098-117.077 31.823 0 62.233 7.691 87.943 22.24 3.633 2.055 8.245.778 10.301-2.856 2.056-3.633.778-8.245-2.856-10.301-27.976-15.832-60.961-24.201-95.388-24.201-43.806 0-85.061 13.543-116.168 38.134-31.629 25.004-49.048 58.409-49.048 94.06 0 34.94 16.826 67.87 47.378 92.721z"/><path d="m184.05 161.152c6.391 0 11.572-5.181 11.572-11.572s-5.181-11.572-11.572-11.572-11.572 5.181-11.572 11.572c.001 6.391 5.182 11.572 11.572 11.572z"/><path d="m274.323 161.152c6.391 0 11.572-5.181 11.572-11.572s-5.181-11.572-11.572-11.572-11.572 5.181-11.572 11.572 5.181 11.572 11.572 11.572z"/><path d="m196.043 208.191c7.523 10.909 19.913 17.422 33.144 17.422s25.621-6.513 33.144-17.422c2.37-3.437 1.505-8.143-1.931-10.513-3.438-2.373-8.144-1.505-10.514 1.931-4.701 6.818-12.439 10.887-20.699 10.887s-15.998-4.07-20.699-10.887c-2.37-3.437-7.077-4.302-10.514-1.931-3.437 2.37-4.301 7.076-1.931 10.513z"/><path d="m466.554 374.476h-1.503v-17.489c0-33.785-27.486-61.27-61.27-61.27-8.86 0-17.279 1.906-24.89 5.304-21.91-16.942-47.632-27.773-74.995-31.562v-19.315c25.968-10.53 48.015-26.349 63.928-45.946 17.388-21.412 26.579-46.311 26.579-72.004 0-31.767-14.246-62.457-40.112-86.416-3.063-2.837-7.845-2.653-10.682.408-2.836 3.063-2.653 7.845.409 10.681 22.743 21.066 35.268 47.817 35.268 75.327 0 38.337-24.686 74.337-64.409 96.047 11.322-17.385 17.588-37.906 17.588-59.314v-41.826c0-24.818-20.19-45.007-45.007-45.007h-116.541c-24.817 0-45.007 20.19-45.007 45.007v41.826c0 27.555 10.382 53.638 28.568 73.455v27.085c-36.852 5.112-70.743 23.053-95.857 50.866-26.368 29.201-40.89 66.969-40.89 106.345v18.301c0 6.946 5.651 12.598 12.598 12.598h282.964v26.707c0 15.282 12.433 27.715 27.715 27.715h84.648c4.174 0 7.559-3.384 7.559-7.559s-3.384-7.559-7.559-7.559h-84.648c-6.946 0-12.598-5.651-12.598-12.598v-82.094c0-6.946 5.651-12.598 12.598-12.598h125.547c6.946 0 12.598 5.651 12.598 12.598v82.094c0 6.946-5.651 12.598-12.598 12.598h-4.023c-4.174 0-7.559 3.384-7.559 7.559s3.384 7.559 7.559 7.559h4.023c15.282 0 27.715-12.433 27.715-27.715v-82.094c-.001-15.28-12.434-27.714-27.716-27.714zm-16.62-17.489v17.489h-18.079c-8.202-23.585-21.814-44.788-39.829-62.12 3.755-.99 7.694-1.522 11.755-1.522 25.449 0 46.153 20.705 46.153 46.153zm-72.61-37.783c16.735 14.861 30.026 33.681 38.422 55.272h-58.118v-17.489c0-15.611 7.798-29.427 19.696-37.783zm-207.729-63.173c2.135 1.769 29.227 19.761 32.199 21.817 8.32 5.592 17.856 8.388 27.392 8.388s19.072-2.796 27.392-8.388c3.105-2.146 29.951-19.97 32.199-21.817v24.96c0 26.647-21.679 48.326-48.326 48.326h-22.531c-26.647 0-48.326-21.679-48.326-48.326v-24.96zm-28.568-128.93c0-16.481 13.409-29.89 29.89-29.89h116.539c16.481 0 29.89 13.409 29.89 29.89v41.826c0 31.222-15.47 60.26-41.383 77.677l-27.817 18.697c-11.518 7.741-26.402 7.741-37.919 0l-27.817-18.697c-25.913-17.416-41.383-46.455-41.383-77.677zm172.265 275.09v40.269h-280.444v-15.782c0-71.385 51.913-131.342 121.748-141.958 1.938 33.252 29.595 59.714 63.325 59.714h22.531c33.724 0 61.376-26.452 63.323-59.695 22.523 3.43 43.429 12.047 61.343 24.759-13.785 11.244-22.608 28.353-22.608 47.488v17.489h-1.503c-15.282.001-27.715 12.435-27.715 27.716z"/></g></g></svg>