<svg id="Gradient" height="512" viewBox="0 0 512 512" width="512" xmlns="http://www.w3.org/2000/svg" xmlns:xlink="http://www.w3.org/1999/xlink"><linearGradient id="linear-gradient" gradientUnits="userSpaceOnUse" x1="256" x2="256" y1="432" y2="80"><stop offset="0" stop-color="#12c2e9"/><stop offset=".5" stop-color="#c471ed"/><stop offset="1" stop-color="#f64f59"/></linearGradient><path d="m83 334.247c1.725 1.378 42.771 33.753 93 33.753s91.275-32.375 93-33.753a8 8 0 0 0 3-6.247c0-45.922-27.618-84.982-65.8-98.724a48 48 0 1 0 -60.394 0c-38.188 13.742-65.806 52.802-65.806 98.724a8 8 0 0 0 3 6.247zm61-142.247a32 32 0 1 1 32 32 32.036 32.036 0 0 1 -32-32zm32 48c42.9 0 78.022 37.338 79.919 84.022-9.958 7.04-42.71 27.978-79.919 27.978s-69.961-20.938-79.919-27.978c1.897-46.684 37.019-84.022 79.919-84.022zm-104 192h368a40.045 40.045 0 0 0 40-40v-272a40.045 40.045 0 0 0 -40-40h-368a40.045 40.045 0 0 0 -40 40v272a40.045 40.045 0 0 0 40 40zm-24-312a24.027 24.027 0 0 1 24-24h368a24.028 24.028 0 0 1 24 24v272a24.028 24.028 0 0 1 -24 24h-368a24.027 24.027 0 0 1 -24-24zm256 64a8 8 0 0 1 8-8h112a8 8 0 0 1 0 16h-112a8 8 0 0 1 -8-8zm0 48a8 8 0 0 1 8-8h112a8 8 0 0 1 0 16h-112a8 8 0 0 1 -8-8zm0 48a8 8 0 0 1 8-8h112a8 8 0 0 1 0 16h-112a8 8 0 0 1 -8-8zm0 48a8 8 0 0 1 8-8h112a8 8 0 0 1 0 16h-112a8 8 0 0 1 -8-8z" fill="url(#linear-gradient)"/></svg>